<svg xmlns="http://www.w3.org/2000/svg" viewBox="0 0 512 512" width="100%" height="100%">
  <defs>
    <linearGradient id="grad" x1="0%" y1="0%" x2="100%" y2="100%">
      <stop offset="0%" style="stop-color:#4f46e5;stop-opacity:1" />
      <stop offset="100%" style="stop-color:#06b6d4;stop-opacity:1" />
    </linearGradient>
  </defs>
  <rect width="512" height="512" rx="128" fill="#0f172a"/>
  <!-- Shield outline -->
  <path d="M256,80 C340,110 380,140 380,180 C380,300 320,380 256,432 C192,380 132,300 132,180 C132,140 172,110 256,80 Z" fill="url(#grad)" opacity="0.15"/>
  <!-- Actual Shield and Eye Icon -->
  <path d="M256,100 C325,125 360,150 360,185 C360,285 305,355 256,400 C207,355 152,285 152,185 C152,150 187,125 256,100 Z" fill="none" stroke="url(#grad)" stroke-width="24" stroke-linejoin="round"/>
  <!-- Center Eye -->
  <path d="M190,256 C210,220 235,200 256,200 C277,200 302,220 322,256 C302,292 277,312 256,312 C235,312 210,292 190,256 Z" fill="none" stroke="url(#grad)" stroke-width="16" stroke-linejoin="round"/>
  <!-- Iris and Pupil -->
  <circle cx="256" cy="256" r="32" fill="url(#grad)"/>
  <circle cx="256" cy="256" r="12" fill="#0f172a"/>
  <circle cx="248" cy="248" r="4" fill="#ffffff"/>
</svg>
